HIERARCHY
ROOT RootJoint
{
    OFFSET   0.000000   0.000000   0.000000
    CHANNELS 6 Xposition Yposition Zposition Xrotation Yrotation Zrotation
    JOINT pelvis_lowerback
    {
        OFFSET   0.000000   0.093605   0.000000
        CHANNELS 3 Xrotation Yrotation Zrotation
        JOINT lowerback_torso
        {
            OFFSET   0.000000   0.100000   0.000000
            CHANNELS 3 Xrotation Yrotation Zrotation
            JOINT torso_head
            {
                OFFSET   0.000000   0.282350   0.000000
                CHANNELS 3 Xrotation Yrotation Zrotation
                End Site
                {
                    OFFSET   0.000000   0.192650   0.000000
                }
            }
            JOINT rTorso_Clavicle
            {
                OFFSET  -0.001000   0.157500   0.000000
                CHANNELS 3 Xrotation Yrotation Zrotation
                JOINT rShoulder
                {
                    OFFSET  -0.117647   0.000000   0.000000
                    CHANNELS 3 Xrotation Yrotation Zrotation
                    JOINT rElbow
                    {
                        OFFSET  -0.245000   0.000000   0.000000
                        CHANNELS 3 Xrotation Yrotation Zrotation
                        JOINT rWrist
                        {
                            OFFSET  -0.240000   0.000000   0.000000
                            CHANNELS 3 Xrotation Yrotation Zrotation
                            End Site
                            {
                                OFFSET  -0.116353  -0.002500   0.000000
                            }
                        }
                    }
                }
            }
            JOINT lTorso_Clavicle
            {
                OFFSET   0.001000   0.157500   0.000000
                CHANNELS 3 Xrotation Yrotation Zrotation
                JOINT lShoulder
                {
                    OFFSET   0.117647   0.000000   0.000000
                    CHANNELS 3 Xrotation Yrotation Zrotation
                    JOINT lElbow
                    {
                        OFFSET   0.245000   0.000000   0.000000
                        CHANNELS 3 Xrotation Yrotation Zrotation
                        JOINT lWrist
                        {
                            OFFSET   0.240000   0.000000   0.000000
                            CHANNELS 3 Xrotation Yrotation Zrotation
                            End Site
                            {
                                OFFSET   0.116353  -0.002500   0.000000
                            }
                        }
                    }
                }
            }
        }
    }
    JOINT rHip
    {
        OFFSET  -0.100000  -0.051395   0.000000
        CHANNELS 3 Xrotation Yrotation Zrotation
        JOINT rKnee
        {
            OFFSET   0.000000  -0.410000   0.000000
            CHANNELS 3 Xrotation Yrotation Zrotation
            JOINT rAnkle
            {
                OFFSET   0.000000  -0.390000   0.000000
                CHANNELS 3 Xrotation Yrotation Zrotation
                JOINT rToeJoint
                {
                    OFFSET   0.000000  -0.050000   0.130000
                    CHANNELS 3 Xrotation Yrotation Zrotation
                    End Site
                    {
                        OFFSET  -0.010000   0.002000   0.060000
                    }
                }
            }
        }
    }
    JOINT lHip
    {
        OFFSET   0.100000  -0.051395   0.000000
        CHANNELS 3 Xrotation Yrotation Zrotation
        JOINT lKnee
        {
            OFFSET   0.000000  -0.410000   0.000000
            CHANNELS 3 Xrotation Yrotation Zrotation
            JOINT lAnkle
            {
                OFFSET   0.000000  -0.390000   0.000000
                CHANNELS 3 Xrotation Yrotation Zrotation
                JOINT lToeJoint
                {
                    OFFSET   0.000000  -0.050000   0.130000
                    CHANNELS 3 Xrotation Yrotation Zrotation
                    End Site
                    {
                        OFFSET   0.010000   0.002000   0.060000
                    }
                }
            }
        }
    }
}
MOTION
Frames: 8
Frame Time:   0.008333
 -2.404158   0.894626   6.761949 -153.218413 -83.939538 -146.994747   7.086069   1.839109  -3.487972  -0.926718  -4.309955  -2.121140  -1.623807  -1.305678   0.495340  -2.803486   6.950331  -0.534097 -17.368161   6.221134  33.869798  -0.001114  52.569758   0.001425  -2.800579   1.931040 -11.647660  -2.750506 -13.190415  -1.239693 -14.640676 -15.534234 -38.868324  -0.001706 -50.369499  -0.000637  -3.432340  -1.533307   9.691059  14.475586  -1.493587   2.327645   8.566335   0.000285  -0.002447 -18.075334   1.184680  -8.027296  -4.247955  -0.001472   0.004325 -23.185292  -1.776056   3.226474  26.368635  -0.001075   0.056762 -10.283793  10.376150   0.575809  -3.821539   0.000780  -0.003079
 -2.413717   0.893763   6.763719 -154.447390 -83.528327 -148.401966   7.011879   1.929330  -3.398865  -0.863755  -4.290639  -2.087029  -1.597961  -1.287222   0.493677  -2.779595   7.077900  -0.469551 -17.180483   6.362837  33.956451  -0.001206  52.340183   0.001380  -2.703305   2.036906 -11.683168  -2.756745 -13.061668  -1.453407 -14.467459 -15.432235 -39.018755  -0.001766 -50.272965  -0.000558  -3.392371  -1.601749   9.755863  15.062535  -1.598101   2.218781   8.819069   0.000452  -0.003278 -18.062427   1.499048  -7.821864  -5.250632  -0.001894   0.004427 -23.281758  -1.643480   3.270180  24.626110  -0.005222   0.049520 -10.432087  10.486223   0.569131  -3.788521   0.000794  -0.002485
 -2.423508   0.893050   6.765454 -155.494825 -83.118374 -149.620160   6.919042   2.023361  -3.326321  -0.802567  -4.269172  -2.050907  -1.577270  -1.269176   0.495756  -2.736849   7.180090  -0.389150 -16.986524   6.478466  34.052509  -0.001247  52.114456   0.001267  -2.622044   2.080164 -11.687077  -2.739441 -12.925383  -1.672129 -14.287840 -15.325755 -39.175761  -0.001810 -50.177490  -0.000480  -3.358174  -1.647293   9.794909  15.624223  -1.749581   2.102762   9.134758   0.000604  -0.004379 -17.927272   1.735368  -7.603998  -6.553811  -0.002358   0.005912 -23.339722  -1.500830   3.294195  23.019405  -0.008349   0.043172 -10.570873  10.590846   0.562942  -3.765156   0.000753  -0.002003
 -2.433451   0.892369   6.767175 -156.626442 -82.685887 -150.910849   6.813352   2.128750  -3.267768  -0.752806  -4.236067  -2.020057  -1.561556  -1.251695   0.497451  -2.688760   7.269267  -0.307146 -16.798239   6.581020  34.148357  -0.001187  51.900431   0.001095  -2.550461   2.092681 -11.670705  -2.710540 -12.782594  -1.878601 -14.109046 -15.216746 -39.325198  -0.001826 -50.084467  -0.000418  -3.330215  -1.667378   9.821185  16.158906  -1.933671   1.966911   9.479685   0.000698  -0.005597 -17.728784   1.906580  -7.366811  -8.027442  -0.002842   0.008919 -23.378166  -1.361491   3.306960  21.537372  -0.010478   0.038196 -10.700387  10.688837   0.557131  -3.747902   0.000687  -0.001620
 -2.443501   0.891652   6.768886 -157.877072 -82.225623 -152.313637   6.698717   2.243203  -3.217539  -0.716371  -4.191237  -1.993287  -1.549270  -1.235020   0.498697  -2.642005   7.351544  -0.230432 -16.620989   6.676235  34.239100  -0.001035  51.700020   0.000883  -2.483972   2.095243 -11.646217  -2.677303 -12.636744  -2.067894 -13.935884 -15.107620 -39.462125  -0.001816 -49.994926  -0.000380  -3.306723  -1.669352   9.848537  16.668480  -2.136714   1.812189   9.834635   0.000734  -0.006798 -17.495844   2.032184  -7.120956  -9.575984  -0.003534   0.012854 -23.406107  -1.229815   3.318241  20.166648  -0.011834   0.034402 -10.821225  10.780435   0.551762  -3.734918   0.000613  -0.001315
 -2.453647   0.890864   6.770588 -159.102327 -81.767139 -153.689620   6.578652   2.350240  -3.168765  -0.691292  -4.147530  -1.967773  -1.539057  -1.219652   0.499883  -2.598249   7.425308  -0.161888 -16.455349   6.763978  34.321605  -0.000824  51.512712   0.000657  -2.420933   2.094889 -11.623879  -2.644420 -12.495036  -2.240977 -13.772090 -15.002711 -39.587369  -0.001783 -49.910141  -0.000359  -3.285812  -1.662169   9.879116  17.157461  -2.323766   1.643836  10.189839   0.000779  -0.007723 -17.238547   2.156924  -6.890714 -11.127314  -0.004491   0.015800 -23.431314  -1.108279   3.324201  18.895812  -0.012701   0.031177 -10.933850  10.865716   0.546723  -3.724352   0.000541  -0.001069
 -2.463879   0.889973   6.772277 -160.286223 -81.319800 -155.023732   6.454424   2.447532  -3.121273  -0.677054  -4.108949  -1.942842  -1.530269  -1.205479   0.501279  -2.557925   7.490531  -0.102324 -16.301017   6.844517  34.395260  -0.000585  51.337767   0.000439  -2.360821   2.093471 -11.608081  -2.614514 -12.360869  -2.398177 -13.619467 -14.904318 -39.701596  -0.001727 -49.830974  -0.000350  -3.266136  -1.653047   9.912897  17.627556  -2.496447   1.466571  10.542049   0.000834  -0.008382 -16.969523   2.280433  -6.682445 -12.652907  -0.005639   0.017746 -23.456865  -0.994949   3.324545  17.714982  -0.013213   0.028306 -11.038916  10.945198   0.541960  -3.715986   0.000472  -0.000869
 -2.474570   0.889425   6.773951 -160.673640 -80.887270 -155.566894   6.352579   2.527230  -3.100652  -0.632661  -4.084255  -1.872965  -1.472399  -1.196105   0.579376  -2.488407   7.518332  -0.023918 -16.096564   6.875883  34.511187  -0.000488  51.022959   0.000132  -2.285594   2.213105 -11.557275  -2.521022 -12.255076  -2.582772 -13.310488 -14.883775 -39.794380  -0.001637 -49.788681  -0.000417  -3.228250  -1.681769   9.986186  18.091840  -2.518393   1.265160  11.153701   0.001374  -0.009454 -16.328001   2.314729  -6.107936 -15.128231   0.000859   0.020703 -23.368919  -0.851503   3.249662  17.000116  -0.012869   0.024251 -10.942640  11.089369   0.748308  -3.629820   0.000592  -0.000730
